<svg width="17" height="20" viewBox="0 0 17 20" fill="none" xmlns="http://www.w3.org/2000/svg">
<path fill-rule="evenodd" clip-rule="evenodd" d="M8.3747 0.000244141C10.6307 0.000244141 12.6447 1.43324 13.3837 3.56724C13.5197 3.95824 13.3117 4.38524 12.9197 4.52124C12.5287 4.65824 12.1017 4.44924 11.9657 4.05724C11.4367 2.52824 9.9917 1.50024 8.3717 1.50024H8.3577C6.2657 1.50024 4.5617 3.19424 4.5527 5.28424L4.552 6.62624L12.184 6.62694C14.688 6.62694 16.726 8.66494 16.726 11.1699V15.4579C16.726 17.9629 14.688 20.0009 12.184 20.0009H4.542C2.037 20.0009 0 17.9629 0 15.4579V11.1699C0 9.18655 1.277 7.49593 3.05221 6.87786L3.0527 5.30124C3.0657 2.36324 5.4417 0.000244141 8.3547 0.000244141H8.3747ZM12.184 8.12694H4.542C2.864 8.12694 1.5 9.49194 1.5 11.1699V15.4579C1.5 17.1359 2.864 18.5009 4.542 18.5009H12.184C13.861 18.5009 15.226 17.1359 15.226 15.4579V11.1699C15.226 9.49194 13.861 8.12694 12.184 8.12694ZM8.3633 11.4527C8.7773 11.4527 9.1133 11.7887 9.1133 12.2027V14.4247C9.1133 14.8387 8.7773 15.1747 8.3633 15.1747C7.9493 15.1747 7.6133 14.8387 7.6133 14.4247V12.2027C7.6133 11.7887 7.9493 11.4527 8.3633 11.4527Z" fill="black"/>
</svg>
